# xmcd CD database file
#
# Track frame offsets:
#	150
#	83163
#	148635
#	282891
#	307763
#
# Disc length: 4431 seconds
#
# Revision: 1
# Processed by: cddbd v1.4PL0 Copyright (c) Steve Scherf et al.
# Submitted via: CDex 1.50beta8
#
DISCID=39114d05
DTITLE=Paul Lovens, Paul Hubweber, John Edwards - PAPAJO
DYEAR=2002
DGENRE=Jazz
TTITLE0=Spout-Hole Blues
TTITLE1=Philantropical Dance
TTITLE2=Primitivo Di Mantre
TTITLE3=Refrangible
TTITLE4=No Reason to Play the Blues
EXTD=YEAR: 2002
EXTT0=
EXTT1=
EXTT2=
EXTT3=
EXTT4=
PLAYORDER=
